<?xml version="1.0" encoding="UTF-8"?>
<svg xmlns="http://www.w3.org/2000/svg" width="11" height="11" viewBox="0 0 11 11"><g id="external-link" transform="translate(-2 -2)"><path id="Path_16" data-name="Path 16" d="M9.7,14.35H3.65A1.652,1.652,0,0,1,2,12.7V6.65A1.652,1.652,0,0,1,3.65,5h3.3a.55.55,0,0,1,0,1.1H3.65a.551.551,0,0,0-.55.55V12.7a.551.551,0,0,0,.55.55H9.7a.551.551,0,0,0,.55-.55V9.4a.55.55,0,0,1,1.1,0v3.3A1.652,1.652,0,0,1,9.7,14.35Z" transform="translate(0 -1.35)" fill="#fff"/><path id="Path_17" data-name="Path 17" d="M17.85,6.4a.55.55,0,0,1-.55-.55V3.1H14.55a.55.55,0,0,1,0-1.1h3.3a.55.55,0,0,1,.55.55v3.3A.55.55,0,0,1,17.85,6.4Z" transform="translate(-5.4)" fill="#fff"/><path id="Line_1" data-name="Line 1" d="M-.45,6.15a.548.548,0,0,1-.389-.161.55.55,0,0,1,0-.778l6.05-6.05a.55.55,0,0,1,.778,0,.55.55,0,0,1,0,.778l-6.05,6.05A.548.548,0,0,1-.45,6.15Z" transform="translate(6.85 3)" fill="#fff"/></g></svg>