<?xml version="1.0" encoding="UTF-8"?> <svg xmlns="http://www.w3.org/2000/svg" width="15" height="12" viewBox="0 0 15 12"><path id="phone" d="M8.5,2A10.541,10.541,0,0,0,1.417,4.727L1,5.113,3.3,7.241,5.75,5.461l0-1.956a9.9,9.9,0,0,1,5.492,0l0,1.956L13.7,7.241,16,5.113l-.417-.386A10.541,10.541,0,0,0,8.5,2ZM6.455,5.789V7.053L3.045,9.578v3.159H2.364V14H14.636V12.737h-.682V9.579L10.545,7.053V5.789H9.182V7.053H7.818V5.789Zm0,3.158a.633.633,0,1,1-.682.632A.658.658,0,0,1,6.455,8.947Zm2.045,0a.633.633,0,1,1-.682.632A.658.658,0,0,1,8.5,8.947Zm2.045,0a.633.633,0,1,1-.682.632A.658.658,0,0,1,10.545,8.947ZM6.455,10.842a.633.633,0,1,1-.682.632A.658.658,0,0,1,6.455,10.842Zm2.045,0a.633.633,0,1,1-.682.632A.658.658,0,0,1,8.5,10.842Zm2.045,0a.633.633,0,1,1-.682.632A.658.658,0,0,1,10.545,10.842Z" transform="translate(-1 -2)"></path></svg> 