<svg class="brxe-icon" id="brxe-athvhi" xmlns="http://www.w3.org/2000/svg" width="16" height="16" viewBox="0 0 16 16"><g id="search-outline" transform="translate(-48 -48)"><path id="Path_16" data-name="Path 16" d="M54.657,48h0A6.657,6.657,0,1,1,48,54.657,6.665,6.665,0,0,1,54.657,48Zm0,12.084a5.427,5.427,0,0,0,0-10.853v0a5.427,5.427,0,0,0,0,10.853Z" transform="translate(0)" fill="#fff"></path><path id="Path_17" data-name="Path 17" d="M327.125,327.74a.613.613,0,0,1-.435-.18l-4.22-4.22a.615.615,0,0,1,.87-.87l4.22,4.22a.615.615,0,0,1-.435,1.05Z" transform="translate(-263.74 -263.74)" fill="#fff"></path></g></svg>
