<?xml version="1.0" encoding="UTF-8"?>
<svg class="brxe-icon" id="brxe-zwyevs" xmlns="http://www.w3.org/2000/svg" width="10.996" height="10.996" viewBox="0 0 10.996 10.996"><path id="language_FILL0_wght400_GRAD0_opsz48" d="M9.5,15a5.388,5.388,0,0,1-2.158-.433,5.552,5.552,0,0,1-1.746-1.175,5.438,5.438,0,0,1-1.168-1.753A5.513,5.513,0,0,1,4,9.471a5.413,5.413,0,0,1,.426-2.151A5.478,5.478,0,0,1,5.594,5.581,5.366,5.366,0,0,1,7.34,4.419a5.764,5.764,0,0,1,4.316,0A5.366,5.366,0,0,1,13.4,5.581,5.478,5.478,0,0,1,14.57,7.319,5.413,5.413,0,0,1,15,9.471a5.513,5.513,0,0,1-.426,2.165A5.438,5.438,0,0,1,13.4,13.388a5.552,5.552,0,0,1-1.746,1.175A5.388,5.388,0,0,1,9.5,15Zm0-.8a4.575,4.575,0,0,0,.8-1.134,6.827,6.827,0,0,0,.529-1.519H8.179a6.971,6.971,0,0,0,.515,1.484A4.684,4.684,0,0,0,9.5,14.2ZM8.33,14.034a6.571,6.571,0,0,1-.591-1.127,8.234,8.234,0,0,1-.412-1.361H5.265a4.93,4.93,0,0,0,1.21,1.533A6.039,6.039,0,0,0,8.33,14.034Zm2.35-.014a5.5,5.5,0,0,0,1.78-.948,4.923,4.923,0,0,0,1.271-1.526H11.684a9.957,9.957,0,0,1-.419,1.347,6.239,6.239,0,0,1-.584,1.127Zm-5.69-3.3H7.175q-.041-.371-.048-.667T7.12,9.471q0-.344.014-.612t.055-.6H4.99a4.008,4.008,0,0,0-.131.591,4.817,4.817,0,0,0-.034.619,5.326,5.326,0,0,0,.034.639A3.875,3.875,0,0,0,4.99,10.721Zm3.038,0h2.955q.055-.426.069-.694t.014-.557q0-.275-.014-.529t-.069-.68H8.027q-.055.426-.069.68t-.014.529q0,.289.014.557t.069.694Zm3.78,0h2.2a3.874,3.874,0,0,0,.131-.612,5.325,5.325,0,0,0,.034-.639,4.817,4.817,0,0,0-.034-.619,4.008,4.008,0,0,0-.131-.591H11.821q.041.481.055.735t.014.474q0,.3-.021.57T11.807,10.721ZM11.67,7.436h2.062a4.453,4.453,0,0,0-1.244-1.581,4.74,4.74,0,0,0-1.821-.893,5.991,5.991,0,0,1,.584,1.1A8.94,8.94,0,0,1,11.67,7.436Zm-3.491,0h2.667a5.361,5.361,0,0,0-.509-1.409,5.623,5.623,0,0,0-.838-1.2,3.023,3.023,0,0,0-.742.976A8.875,8.875,0,0,0,8.179,7.436Zm-2.914,0H7.34A7.737,7.737,0,0,1,7.725,6.11a6.526,6.526,0,0,1,.591-1.134,4.535,4.535,0,0,0-3.051,2.46Z" transform="translate(-4 -4)" fill="#fff"></path></svg>
